<?xml version="1.0" encoding="UTF-8" standalone="no"?>
<!-- Created with Inkscape (http://www.inkscape.org/) -->

<svg
   xmlns:dc="http://purl.org/dc/elements/1.1/"
   xmlns:cc="http://creativecommons.org/ns#"
   xmlns:rdf="http://www.w3.org/1999/02/22-rdf-syntax-ns#"
   xmlns:svg="http://www.w3.org/2000/svg"
   xmlns="http://www.w3.org/2000/svg"
   xmlns:sodipodi="http://sodipodi.sourceforge.net/DTD/sodipodi-0.dtd"
   xmlns:inkscape="http://www.inkscape.org/namespaces/inkscape"
   width="140mm"
   height="140mm"
   viewBox="0 0 140 140"
   version="1.1"
   id="svg8"
   inkscape:export-filename="/Users/devin/Code/ceesadvisors/frontend/src/components/header/Logo_no_words.png"
   inkscape:export-xdpi="96"
   inkscape:export-ydpi="96"
   inkscape:version="0.92.2 5c3e80d, 2017-08-06"
   sodipodi:docname="logo_no_words.svg">
  <defs
     id="defs2">
    <clipPath
       clipPathUnits="userSpaceOnUse"
       id="clipPath4640">
      <g
         id="use4642"
         inkscape:label="Clip">
        <g
           id="g4655">
          <path
             d="m 35.7772,268.13807 q 0,-5.81019 3.115829,-8.95613 2.709416,-2.73952 6.893959,-2.73952 5.59946,0 8.188457,3.67277 1.42997,2.06216 1.535336,4.13938 h -4.636112 q -0.451569,-1.59554 -1.159028,-2.40837 -1.264394,-1.44502 -3.748026,-1.44502 -2.528788,0 -3.988862,2.04711 -1.460075,2.03207 -1.460075,5.76504 0,3.73297 1.535336,5.59946 1.550388,1.85143 3.928654,1.85143 2.438474,0 3.717921,-1.59554 0.707458,-0.85798 1.17408,-2.57395 h 4.590955 q -0.602092,3.62761 -3.085724,5.90051 -2.468579,2.2729 -6.337023,2.2729 -4.786635,0 -7.526156,-3.07067 -2.739521,-3.08573 -2.739521,-8.4594 z m 9.874317,-11.95154 z"
             style="font-style:normal;font-weight:normal;font-size:medium;line-height:1.25;font-family:sans-serif;letter-spacing:0px;word-spacing:0px;fill:#45cb85;fill-opacity:1;stroke:none;stroke-width:0.77067965"
             id="path4647"
             inkscape:connector-curvature="0" />
          <path
             d="M 75.42499,260.79254 H 63.684187 v 4.71137 h 10.777455 v 3.8534 H 63.684187 v 5.70482 h 12.282686 v 3.98886 H 59.153441 v -22.1871 H 75.42499 Z"
             style="font-style:normal;font-weight:normal;font-size:medium;line-height:1.25;font-family:sans-serif;letter-spacing:0px;word-spacing:0px;fill:#45cb85;fill-opacity:1;stroke:none;stroke-width:0.77067965"
             id="path4649"
             inkscape:connector-curvature="0" />
          <path
             d="M 96.016552,260.79254 H 84.275749 v 4.71137 h 10.777455 v 3.8534 H 84.275749 v 5.70482 h 12.282687 v 3.98886 H 79.745003 v -22.1871 h 16.271549 z"
             style="font-style:normal;font-weight:normal;font-size:medium;line-height:1.25;font-family:sans-serif;letter-spacing:0px;word-spacing:0px;fill:#45cb85;fill-opacity:1;stroke:none;stroke-width:0.77067965"
             id="path4651"
             inkscape:connector-curvature="0" />
          <path
             d="m 103.55776,272.20219 q 0.21073,1.52029 0.82788,2.2729 1.12892,1.36976 3.86844,1.36976 1.64071,0 2.66426,-0.36125 1.94175,-0.69241 1.94175,-2.57395 0,-1.09882 -0.96335,-1.70091 -0.96335,-0.58704 -3.02551,-1.03861 l -2.34816,-0.52683 q -3.46203,-0.78272 -4.78664,-1.70091 -2.242792,-1.53534 -2.242792,-4.80169 0,-2.98036 2.167532,-4.95221 2.16753,-1.97185 6.36713,-1.97185 3.50719,0 5.97577,1.86648 2.48363,1.85144 2.60405,5.38873 h -4.45549 q -0.12042,-2.00196 -1.74607,-2.84489 -1.08376,-0.55693 -2.69436,-0.55693 -1.79122,0 -2.85994,0.72251 -1.06871,0.72251 -1.06871,2.01701 0,1.18913 1.05366,1.77617 0.67735,0.39136 2.89004,0.91819 l 3.82329,0.9182 q 2.51374,0.60209 3.79318,1.61059 1.98691,1.56544 1.98691,4.53075 0,3.04057 -2.33311,5.05758 -2.31806,2.00195 -6.56281,2.00195 -4.33506,0 -6.8187,-1.97185 -2.483628,-1.98691 -2.483628,-5.44894 z m 4.50064,-16.01566 z"
             style="font-style:normal;font-weight:normal;font-size:medium;line-height:1.25;font-family:sans-serif;letter-spacing:0px;word-spacing:0px;fill:#45cb85;fill-opacity:1;stroke:none;stroke-width:0.77067965"
             id="path4653"
             inkscape:connector-curvature="0" />
        </g>
      </g>
    </clipPath>
  </defs>
  <sodipodi:namedview
     id="base"
     pagecolor="#ffffff"
     bordercolor="#666666"
     borderopacity="1.0"
     inkscape:pageopacity="0.0"
     inkscape:pageshadow="2"
     inkscape:zoom="0.80676031"
     inkscape:cx="266.2822"
     inkscape:cy="287.92475"
     inkscape:document-units="mm"
     inkscape:current-layer="layer1"
     showgrid="false"
     inkscape:pagecheckerboard="true"
     showguides="false"
     inkscape:guide-bbox="true"
     inkscape:window-width="1440"
     inkscape:window-height="855"
     inkscape:window-x="-1"
     inkscape:window-y="0"
     inkscape:window-maximized="0" />
  <metadata
     id="metadata5">
    <rdf:RDF>
      <cc:Work
         rdf:about="">
        <dc:format>image/svg+xml</dc:format>
        <dc:type
           rdf:resource="http://purl.org/dc/dcmitype/StillImage" />
        <dc:title></dc:title>
      </cc:Work>
    </rdf:RDF>
  </metadata>
  <g
     inkscape:label="Layer 1"
     inkscape:groupmode="layer"
     id="layer1"
     transform="translate(0,-157)">
    <path
       style="fill:#00171f;fill-opacity:0.66028706;stroke-width:0.22167788"
       d="m 22.902092,162.21942 v 22.225 38.62916 7.40834 7.48584 h 0.04547 v 32.42335 19.06601 h 91.509658 v -19.06601 h -0.009 v -32.42335 -14.36501 -0.52917 -39.6875 h -8.46667 v -16.93333 h -3.07061 v 16.93333 h -8.041906 v 39.6875 h -4.7625 v -28.575 H 73.702091 v 28.575 H 66.822925 V 207.72775 H 47.243758 v 15.34583 h -5.820833 v -38.62916 h 0.08216 l -0.08216,-0.0982 v -0.0656 h -0.05478 z m 72.189905,82.12677 c 1.960721,0 3.630986,0.5218 5.011063,1.56527 1.38849,1.03506 2.11653,2.54105 2.18385,4.51859 h -3.736724 c -0.0673,-1.1192 -0.554646,-1.91414 -1.463477,-2.38538 -0.60588,-0.31136 -1.359392,-0.46664 -2.259811,-0.46664 -1.00139,0 -1.800842,0.20173 -2.398303,0.60565 -0.597479,0.40393 -0.896069,0.96768 -0.896069,1.69137 0,0.6648 0.294616,1.16112 0.883666,1.48931 0.378682,0.2188 1.18609,0.47544 2.423109,0.76998 l 3.206004,0.77049 c 1.405321,0.3366 2.465925,0.78649 3.181205,1.35031 1.11079,0.87516 1.66605,2.14148 1.66605,3.79925 0,1.69985 -0.65163,3.11347 -1.95596,4.24109 -1.295926,1.11921 -3.130994,1.67896 -5.504055,1.67896 -2.423538,0 -4.328985,-0.55127 -5.717479,-1.65364 -1.388491,-1.11079 -2.083078,-2.63378 -2.083078,-4.56923 h 3.711403 c 0.117819,0.84991 0.349004,1.48506 0.694013,1.90582 0.631139,0.76578 1.712706,1.14877 3.244246,1.14877 0.917242,0 1.661742,-0.10086 2.233973,-0.30282 1.08554,-0.38709 1.628325,-1.10665 1.628325,-2.15853 0,-0.6143 -0.269134,-1.08966 -0.807704,-1.42627 -0.53856,-0.32819 -1.384443,-0.61881 -2.537312,-0.87126 l -1.969389,-0.44132 c -1.935469,-0.43757 -3.273184,-0.91346 -4.013708,-1.42678 -1.25385,-0.85833 -1.881023,-2.20055 -1.881023,-4.02663 0,-1.66619 0.605686,-3.05035 1.81746,-4.15272 1.21177,-1.10238 2.991916,-1.65364 5.339725,-1.65364 z m -52.194745,0.18965 c 3.130412,0 5.419886,1.02663 6.867282,3.07991 0.799433,1.15287 1.227838,2.30931 1.286742,3.47059 h -3.887102 c -0.252447,-0.892 -0.576524,-1.56459 -0.972031,-2.019 -0.706872,-0.80785 -1.754474,-1.21181 -3.142962,-1.21181 -1.413732,0 -2.528752,0.57224 -3.345016,1.71669 -0.816263,1.13604 -1.22473,2.74738 -1.22473,4.83433 0,2.08693 0.429438,3.65184 1.287775,4.69532 0.866754,1.03505 1.964791,1.55288 3.294372,1.55288 1.363245,0 2.402356,-0.44591 3.117641,-1.3379 0.395507,-0.47967 0.724088,-1.19971 0.984951,-2.15905 h 3.849897 c -0.336609,2.02805 -1.199468,3.67787 -2.587959,4.94854 -1.380072,1.27069 -3.151727,1.90583 -5.314402,1.90583 -2.675998,0 -4.779695,-0.85784 -6.311244,-2.57452 -1.531543,-1.7251 -2.297533,-4.08995 -2.297533,-7.09414 0,-3.24822 0.871355,-5.75139 2.613276,-7.51014 1.514716,-1.53155 3.44165,-2.29753 5.781043,-2.29753 z m 11.208618,0.35346 h 13.645679 v 3.29438 h -9.845911 v 3.95066 h 9.037691 v 3.23184 h -9.037691 v 4.78369 h 10.300147 v 3.34501 H 54.10587 Z m 17.268197,0 h 13.644645 v 3.29438 h -9.845395 v 3.95066 h 9.038209 v 3.23184 h -9.038209 v 4.78369 h 10.300147 v 3.34501 H 71.374067 Z"
       id="rect4645"
       inkscape:connector-curvature="0" />
    <rect
       id="rect3709"
       width="211.66666"
       height="210.15475"
       x="-0.75595242"
       y="87.601196"
       style="fill:none;stroke-width:0.26458332" />
  </g>
</svg>
