<?xml version="1.0" encoding="iso-8859-1"?>
<!-- Generator: Adobe Illustrator 19.0.0, SVG Export Plug-In . SVG Version: 6.00 Build 0)  -->
<svg xmlns="http://www.w3.org/2000/svg" xmlns:xlink="http://www.w3.org/1999/xlink" version="1.1" id="Capa_1" x="0px" y="0px" viewBox="0 0 512 512" style="enable-background:new 0 0 512 512;" xml:space="preserve" width="512px" height="512px">
<g>
	<g>
		<path d="M108.254,111.345c-1.19-3.509-3.631-6.273-6.875-7.785l-21.06-9.817c-3.812-1.776-8.093-1.959-12.055-0.517    c-3.962,1.444-7.122,4.339-8.897,8.149l-15.769,33.83c-1.778,3.813-1.962,8.094-0.519,12.057c1.443,3.962,4.337,7.122,8.147,8.898    l21.065,9.819c2.162,1.005,4.439,1.489,6.687,1.489c4.734,0,9.337-2.147,12.417-6.105c0.462-0.593,0.855-1.236,1.173-1.918    c0.263-0.564,1.017-2.01,1.816-3.54C105.509,134.589,111.345,120.465,108.254,111.345z M76.95,146.083l-13.435-6.263    l12.193-26.161l12.962,6.042C87.694,123.484,84.779,131.034,76.95,146.083z" fill="#FFFFFF"/>
	</g>
</g>
<g>
	<g>
		<path d="M399.424,149.37c-2.691-1.913-6.152-2.374-9.249-1.232l-39.535,14.56l-47.244-2.964l5.71-12.252    c4.106-8.811,4.518-18.717,1.158-27.891c-3.345-9.136-10.017-16.397-18.787-20.448L253.01,81.379l20.563-44.617    c3.649-7.922,0.175-17.339-7.749-20.993L241.516,4.568c-2.089-0.964-4.313-1.452-6.61-1.452c-6.165,0-11.813,3.61-14.387,9.198    l-20.542,44.571L161.17,38.961c-18.188-8.4-39.854-0.501-48.291,17.613l-6.054,12.994L70.549,52.662    c-11.769-5.487-25.81-0.374-31.297,11.397l-37.05,79.487c-5.448,11.691-0.441,25.62,11.159,31.184l37.076,19.423    c-2.503,16.004,5.387,32.023,20.303,38.977l130.068,60.624c4.896,2.282,10.041,3.367,15.121,3.367    c13.431-0.001,26.398-7.583,33.052-20.65l19.177-37.661l82.894,4.063l37.674,13.249c1.08,0.38,2.201,0.566,3.317,0.566    c2.015,0,4.01-0.608,5.708-1.789c2.637-1.833,4.234-4.821,4.291-8.032l1.59-89.167    C403.689,154.399,402.115,151.282,399.424,149.37z M236.935,24.478l16.726,7.707l-46.61,101.138l-16.725-7.709L236.935,24.478z     M262.673,218.516c-3.947-0.197-7.614,1.941-9.401,5.451l-22.113,43.426c-4.255,8.357-13.875,11.972-21.9,8.232l-130.07-60.623    c-7.97-3.715-11.375-13.435-7.753-22.128c1.994-4.785,0.001-10.299-4.59-12.704l-44.381-23.25    c-0.137-0.071-0.276-0.14-0.416-0.205c-1.745-0.813-2.531-2.975-1.718-4.72l37.049-79.487c0.813-1.746,2.976-2.532,4.721-1.721    l45.341,21.133c2.404,1.121,5.156,1.24,7.648,0.333c2.492-0.908,4.521-2.769,5.642-5.174l10.277-22.06    c3.796-8.15,13.566-11.696,21.778-7.903l38.823,17.93l-21.193,45.985c-1.768,3.834-1.934,8.132-0.469,12.103    c1.466,3.971,4.385,7.13,8.216,8.894l24.314,11.207c2.086,0.96,4.308,1.447,6.602,1.447c6.166,0,11.814-3.61,14.388-9.197    l21.174-45.942l38.454,17.758c3.908,1.806,6.889,5.062,8.392,9.168c1.518,4.146,1.339,8.607-0.505,12.564l-11.902,25.539    c-1.396,2.997-1.222,6.489,0.466,9.332c1.688,2.842,4.672,4.666,7.972,4.873l54.739,3.434l0.584,40.236L262.673,218.516z     M382.288,232.659l-19.399-6.822l-0.669-46.09l21.151-7.79L382.288,232.659z" fill="#FFFFFF"/>
	</g>
</g>
<g>
	<g>
		<path d="M506.923,366.429c-0.985-0.557-24.446-13.648-52.304-13.648c-19.907,0-37.022,6.52-50.869,19.378    c-9.061,8.414-16.552,19.531-22.455,33.195c-15.008-40.678-46.229-47.845-66.329-47.845c-20.501,0-37.348,7.193-38.055,7.499    c-4.249,1.84-6.679,6.355-5.874,10.915c12.655,71.681,57.396,83.819,80.554,85.151v27.811H198.466v-13.057    c16.18-0.15,31.206-5.598,43.486-15.797c13.912-11.554,24.289-28.927,30.843-51.637c1.284-4.448-0.654-9.196-4.684-11.477    c-0.766-0.433-18.995-10.604-40.632-10.604c-15.644,0-29.107,5.135-40.014,15.262c-5.885,5.464-10.915,12.365-15.082,20.635    c-12.408-27.337-35.191-32.334-50.151-32.334c-15.955,0-29.107,5.615-29.659,5.854c-4.249,1.84-6.679,6.355-5.874,10.915    c3.919,22.199,12.364,39.276,25.1,50.757c8.775,7.91,19.43,12.907,31.224,14.748v16.734h-39.325c-5.523,0-10,4.478-10,10    s4.477,10,10,10h293.384c5.523,0,10-4.478,10-10v-34.184c2.715,0.223,5.424,0.34,8.123,0.34c0.002,0,0.001,0,0.004,0    c21.045,0,40.594-6.994,56.526-20.226c17.946-14.904,31.361-37.415,39.872-66.909C512.891,373.458,510.953,368.71,506.923,366.429    z M153.424,452.96c-22.389,0-38.219-14.581-45.185-41.3c3.821-0.936,8.734-1.784,13.995-1.784    c21.697,0,34.118,13.98,37.812,42.667C157.814,452.819,155.603,452.96,153.424,452.96z M178.466,488.884h-15.441v-16.566    c2.416-0.318,4.84-0.756,7.263-1.309c2.722,0.949,5.45,1.77,8.178,2.44V488.884z M182.389,453.819    c7.238-31.537,22.382-47.506,45.091-47.506c9.132,0,17.692,2.514,23.456,4.725c-10.571,29.36-28.829,44.805-53.159,44.805    C192.724,455.843,187.574,455.163,182.389,453.819z M356.356,441.215c-32.255,0-54.728-21.363-63.909-60.406    c5.576-1.577,13.686-3.3,22.519-3.3c31.096,0,49.164,21.067,53.787,62.66C364.572,440.864,360.425,441.215,356.356,441.215z     M387.082,488.884h-15.492V459.96c2.438-0.395,4.88-0.873,7.322-1.453c2.72,0.974,5.445,1.837,8.17,2.594V488.884z     M415.206,445.042c-7.972,0-16.108-1.221-24.279-3.635c9.681-45.549,31.082-68.624,63.691-68.624    c14.255,0,27.45,4.415,35.231,7.665C475.596,422.191,449.313,445.042,415.206,445.042z" fill="#FFFFFF"/>
	</g>
</g>
<g>
	<g>
		<path d="M449.321,301.721c-0.044-0.001-0.089-0.001-0.134-0.001c-5.461,0-9.924,4.391-9.996,9.868l-0.004,0.297    c-0.073,5.523,4.345,10.059,9.868,10.131c0.044,0.001,0.089,0.001,0.134,0.001c5.461,0,9.924-4.391,9.996-9.868l0.004-0.297    C459.262,306.33,454.844,301.794,449.321,301.721z" fill="#FFFFFF"/>
	</g>
</g>
<g>
	<g>
		<path d="M447.325,199.303c-11.004-9.947-24.228-8.705-25.697-8.53c-5.485,0.649-9.404,5.623-8.754,11.107    c0.65,5.484,5.619,9.391,11.107,8.754c0.055-0.007,5.621-0.392,9.933,3.506c4.473,4.043,6.74,11.892,6.555,22.697l-0.8,46.739    c-0.095,5.522,4.305,10.075,9.828,10.17c0.058,0.001,0.116,0.001,0.174,0.001c5.443,0,9.902-4.365,9.995-9.829l0.8-46.739    C460.756,220.191,456.335,207.447,447.325,199.303z" fill="#FFFFFF"/>
	</g>
</g>
<g>
	<g>
		<path d="M74.656,488.884h-0.521c-5.523,0-10,4.478-10,10c0,5.522,4.477,10,10,10h0.521c5.523,0,10-4.478,10-10    C84.656,493.362,80.179,488.884,74.656,488.884z" fill="#FFFFFF"/>
	</g>
</g>
<g>
</g>
<g>
</g>
<g>
</g>
<g>
</g>
<g>
</g>
<g>
</g>
<g>
</g>
<g>
</g>
<g>
</g>
<g>
</g>
<g>
</g>
<g>
</g>
<g>
</g>
<g>
</g>
<g>
</g>
</svg>
