<?xml version="1.0" encoding="UTF-8" standalone="no"?>
<!-- Created with Inkscape (http://www.inkscape.org/) -->

<svg
   xmlns:dc="http://purl.org/dc/elements/1.1/"
   xmlns:cc="http://creativecommons.org/ns#"
   xmlns:rdf="http://www.w3.org/1999/02/22-rdf-syntax-ns#"
   xmlns:svg="http://www.w3.org/2000/svg"
   xmlns="http://www.w3.org/2000/svg"
   xmlns:sodipodi="http://sodipodi.sourceforge.net/DTD/sodipodi-0.dtd"
   xmlns:inkscape="http://www.inkscape.org/namespaces/inkscape"
   width="210mm"
   height="210mm"
   viewBox="0 0 210 210"
   version="1.1"
   id="svg8"
   inkscape:export-filename="/Users/devin/Desktop/cees.png"
   inkscape:export-xdpi="96"
   inkscape:export-ydpi="96"
   inkscape:version="0.92.2 5c3e80d, 2017-08-06"
   sodipodi:docname="cees_logo.svg">
  <defs
     id="defs2" />
  <sodipodi:namedview
     id="base"
     pagecolor="#ffffff"
     bordercolor="#666666"
     borderopacity="1.0"
     inkscape:pageopacity="0.0"
     inkscape:pageshadow="2"
     inkscape:zoom="0.35"
     inkscape:cx="228.57143"
     inkscape:cy="560"
     inkscape:document-units="mm"
     inkscape:current-layer="layer1"
     showgrid="false"
     showguides="true"
     inkscape:guide-bbox="true"
     inkscape:window-width="1440"
     inkscape:window-height="855"
     inkscape:window-x="0"
     inkscape:window-y="1"
     inkscape:window-maximized="1">
    <sodipodi:guide
       position="195.03571,223.00595"
       orientation="1,0"
       id="guide959"
       inkscape:locked="false" />
    <sodipodi:guide
       position="15.618321,121.55713"
       orientation="1,0"
       id="guide961"
       inkscape:locked="false" />
  </sodipodi:namedview>
  <metadata
     id="metadata5">
    <rdf:RDF>
      <cc:Work
         rdf:about="">
        <dc:format>image/svg+xml</dc:format>
        <dc:type
           rdf:resource="http://purl.org/dc/dcmitype/StillImage" />
        <dc:title></dc:title>
      </cc:Work>
    </rdf:RDF>
  </metadata>
  <g
     inkscape:label="Layer 1"
     inkscape:groupmode="layer"
     id="layer1"
     transform="translate(0,-87)">
    <path
       style="fill:#45cb85;fill-opacity:1;stroke-width:0.994654"
       d="M 0.85742188 -0.58398438 L 0.85742188 793.70117 L 795.17383 793.70117 L 795.17383 -0.58398438 L 0.85742188 -0.58398438 z M 663.89648 363.51367 C 682.44811 363.51367 698.25275 368.45125 711.31055 378.32422 C 724.44796 388.11756 731.33569 402.36921 731.97266 421.08008 L 696.62109 421.08008 C 695.98413 410.49052 691.36661 402.96657 682.76758 398.50781 C 677.03489 395.56185 669.90809 394.08789 661.38867 394.08789 C 651.91381 394.08789 644.35034 395.99852 638.69727 399.82031 C 633.0442 403.64211 630.2168 408.97684 630.2168 415.82422 C 630.2168 422.11425 633.00468 426.81276 638.57812 429.91797 C 642.16106 431.98811 649.80357 434.4164 661.50781 437.20312 L 691.84375 444.48828 C 705.14041 447.67311 715.17365 451.93299 721.94141 457.26758 C 732.45134 465.54813 737.70508 477.53152 737.70508 493.2168 C 737.70508 509.30018 731.53457 522.67653 719.19336 533.3457 C 706.93177 543.93526 689.57413 549.22852 667.12109 549.22852 C 644.19033 549.22852 626.15695 544.0143 613.01953 533.58398 C 599.88212 523.07405 593.3125 508.66237 593.3125 490.34961 L 628.42578 490.34961 C 629.54047 498.3913 631.72969 504.40178 634.99414 508.38281 C 640.96569 515.6283 651.19653 519.25195 665.6875 519.25195 C 674.36616 519.25195 681.41392 518.29566 686.82812 516.38477 C 697.0992 512.72221 702.23437 505.91548 702.23438 495.96289 C 702.23437 490.15058 699.68557 485.65162 694.58984 482.4668 C 689.49412 479.36159 681.49397 476.61518 670.58594 474.22656 L 651.95312 470.04688 C 633.64036 465.9066 620.98123 461.40764 613.97461 456.55078 C 602.11112 448.42947 596.17969 435.72886 596.17969 418.45117 C 596.17969 402.68627 601.91157 389.59047 613.37695 379.16016 C 624.84233 368.72984 641.68231 363.51367 663.89648 363.51367 z M 139.47461 365.30469 C 169.09351 365.30469 190.75055 375.01981 204.44531 394.44727 C 212.00928 405.3553 216.06961 416.30141 216.62695 427.28906 L 179.84375 427.28906 C 177.45513 418.84927 174.38866 412.48116 170.64648 408.18164 C 163.95835 400.53805 154.04562 396.71484 140.9082 396.71484 C 127.53193 396.71484 116.98297 402.13057 109.25977 412.95898 C 101.53656 423.70778 97.673828 438.95524 97.673828 458.70117 C 97.673828 478.44711 101.73416 493.25594 109.85547 503.12891 C 118.0564 512.92225 128.44727 517.81836 141.02734 517.81836 C 153.9259 517.81836 163.75958 513.598 170.52734 505.1582 C 174.26952 500.61982 177.37551 493.81309 179.84375 484.73633 L 216.26953 484.73633 C 213.0847 503.92492 204.92257 519.53001 191.78516 531.55273 C 178.72736 543.57546 161.96838 549.58789 141.50586 549.58789 C 116.18648 549.58789 96.28003 541.46528 81.789062 525.22266 C 67.298095 508.90041 60.052734 486.52811 60.052734 458.10352 C 60.052734 427.36992 68.293905 403.68174 84.775391 387.04102 C 99.107117 372.55005 117.34005 365.30469 139.47461 365.30469 z M 255.7207 368.64844 L 384.82617 368.64844 L 384.82617 399.82031 L 291.66992 399.82031 L 291.66992 437.20312 L 377.18359 437.20312 L 377.18359 467.77734 L 291.66992 467.77734 L 291.66992 513.04102 L 389.125 513.04102 L 389.125 544.69141 L 255.7207 544.69141 L 255.7207 368.64844 z M 429.29492 368.64844 L 558.40039 368.64844 L 558.40039 399.82031 L 465.24414 399.82031 L 465.24414 437.20312 L 550.75586 437.20312 L 550.75586 467.77734 L 465.24414 467.77734 L 465.24414 513.04102 L 562.69922 513.04102 L 562.69922 544.69141 L 429.29492 544.69141 L 429.29492 368.64844 z M 59.029297 708.27148 L 737.14258 708.27148 L 737.14258 742.55859 L 59.029297 742.55859 L 59.029297 708.27148 z "
       transform="matrix(0.26458333,0,0,0.26458333,0,87)"
       id="rect815" />
    <g
       id="g941"
       transform="matrix(0.01670203,0,0,-0.01670203,15.618321,175.44288)"
       style="fill:#000000;stroke:none">
      <path
         id="path939"
         d="m 7546,4638 c -9,-24 -28,-133 -42,-243 -25,-200 -90,-650 -101,-692 -5,-20 -11,-23 -59,-23 h -54 v -417 -418 l -40,-331 c -21,-182 -52,-428 -67,-545 l -28,-214 -7,145 c -3,80 -6,454 -6,832 0,377 -3,691 -6,697 -5,7 -54,11 -137,11 h -129 v 95 95 h -389 -389 l -7,-31 c -4,-17 -5,-61 -3,-97 l 3,-67 -117,-3 -118,-3 v -814 -815 h -40 -40 v 120 120 h -35 -35 v 125 125 h -40 -40 v 95 95 h -35 -35 v 50 50 h -225 -225 v -50 c 0,-37 -4,-50 -15,-50 -8,0 -17,-11 -21,-25 -4,-16 -13,-25 -25,-25 -16,0 -19,-8 -19,-45 0,-31 -5,-47 -17,-54 -16,-9 -18,-25 -15,-145 l 3,-136 h -26 -25 v -320 c 0,-313 0,-320 -20,-320 -12,0 -21,7 -22,18 -1,9 -2,181 -3,382 0,201 -4,384 -9,407 l -8,42 -82,3 -81,3 3,33 3,32 h -300 -301 v -30 -30 h -89 c -84,0 -89,-1 -95,-22 -3,-13 -6,-143 -6,-290 v -268 h -75 -75 v 200 200 l -52,2 c -29,1 -104,0 -165,-1 l -113,-3 v 51 51 h -200 -200 v 230 230 h -30 -30 v 160 160 h -190 -190 v 25 c 0,25 -1,25 -80,25 h -80 v 85 c 0,69 -3,85 -15,85 -12,0 -15,18 -15,98 0,98 0,98 -30,120 l -30,23 v -226 -225 h -25 -25 v 225 c 0,124 -4,225 -8,225 -5,0 -18,-10 -30,-23 -19,-21 -22,-34 -22,-120 0,-80 -3,-97 -15,-97 -12,0 -15,-16 -15,-85 v -85 h -85 c -84,0 -85,0 -85,-25 v -25 h -185 -185 v -160 -160 h -40 -40 V 2290 1930 H 1235 870 v 394 c 0,350 -2,395 -16,400 -9,3 -58,6 -110,6 h -94 v 55 55 H 530 410 v -25 c 0,-21 -5,-25 -30,-25 -25,0 -30,4 -30,25 v 25 H 235 120 v -60 -60 H 60 0 V 1360 0 h 5370 5370 v 325 c 0,282 -2,325 -15,325 -13,0 -15,63 -15,510 v 510 h -270 -270 V 1160 650 h -55 -55 v 420 420 H 9890 9720 V 1070 650 h -60 -60 v 835 835 h -315 -315 v 50 c 0,43 -3,50 -19,50 -41,0 -51,-11 -51,-56 v -44 h -125 -125 v -470 -470 h -284 -285 l -5,-53 c -4,-28 -7,-74 -9,-102 -1,-33 -15,39 -40,215 -21,146 -74,511 -118,811 l -79,546 v 435 435 l -45,6 c -26,2 -48,7 -51,9 -4,5 -49,284 -120,751 -21,136 -41,247 -45,247 -3,0 -14,-19 -23,-42 z"
         inkscape:connector-curvature="0" />
    </g>
    <text
       xml:space="preserve"
       style="font-style:normal;font-weight:normal;font-size:35.05226898px;line-height:1.25;font-family:sans-serif;letter-spacing:0px;word-spacing:0px;fill:#000000;fill-opacity:1;stroke:none;stroke-width:0.87630671"
       x="16.137405"
       y="266.16385"
       id="text957"><tspan
         sodipodi:role="line"
         id="tspan955"
         x="16.137405"
         y="266.16385"
         style="stroke-width:0.87630671">ADVISORS</tspan></text>
  </g>
</svg>
