<?xml version="1.0" encoding="UTF-8" standalone="no"?>
<!-- Created with Inkscape (http://www.inkscape.org/) -->

<svg
   xmlns:dc="http://purl.org/dc/elements/1.1/"
   xmlns:cc="http://creativecommons.org/ns#"
   xmlns:rdf="http://www.w3.org/1999/02/22-rdf-syntax-ns#"
   xmlns:svg="http://www.w3.org/2000/svg"
   xmlns="http://www.w3.org/2000/svg"
   xmlns:sodipodi="http://sodipodi.sourceforge.net/DTD/sodipodi-0.dtd"
   xmlns:inkscape="http://www.inkscape.org/namespaces/inkscape"
   width="297mm"
   height="140mm"
   viewBox="0 0 297 140"
   version="1.1"
   id="svg8"
   inkscape:export-filename="/Users/devin/Code/ceesadvisors/frontend/src/components/header/Logo.png"
   inkscape:export-xdpi="96"
   inkscape:export-ydpi="96"
   inkscape:version="0.92.2 5c3e80d, 2017-08-06"
   sodipodi:docname="logo.svg">
  <defs
     id="defs2">
    <clipPath
       clipPathUnits="userSpaceOnUse"
       id="clipPath4640">
      <g
         id="use4642"
         inkscape:label="Clip">
        <g
           id="g4655">
          <path
             d="m 35.7772,268.13807 q 0,-5.81019 3.115829,-8.95613 2.709416,-2.73952 6.893959,-2.73952 5.59946,0 8.188457,3.67277 1.42997,2.06216 1.535336,4.13938 h -4.636112 q -0.451569,-1.59554 -1.159028,-2.40837 -1.264394,-1.44502 -3.748026,-1.44502 -2.528788,0 -3.988862,2.04711 -1.460075,2.03207 -1.460075,5.76504 0,3.73297 1.535336,5.59946 1.550388,1.85143 3.928654,1.85143 2.438474,0 3.717921,-1.59554 0.707458,-0.85798 1.17408,-2.57395 h 4.590955 q -0.602092,3.62761 -3.085724,5.90051 -2.468579,2.2729 -6.337023,2.2729 -4.786635,0 -7.526156,-3.07067 -2.739521,-3.08573 -2.739521,-8.4594 z m 9.874317,-11.95154 z"
             style="font-style:normal;font-weight:normal;font-size:medium;line-height:1.25;font-family:sans-serif;letter-spacing:0px;word-spacing:0px;fill:#45cb85;fill-opacity:1;stroke:none;stroke-width:0.77067965"
             id="path4647"
             inkscape:connector-curvature="0" />
          <path
             d="M 75.42499,260.79254 H 63.684187 v 4.71137 h 10.777455 v 3.8534 H 63.684187 v 5.70482 h 12.282686 v 3.98886 H 59.153441 v -22.1871 H 75.42499 Z"
             style="font-style:normal;font-weight:normal;font-size:medium;line-height:1.25;font-family:sans-serif;letter-spacing:0px;word-spacing:0px;fill:#45cb85;fill-opacity:1;stroke:none;stroke-width:0.77067965"
             id="path4649"
             inkscape:connector-curvature="0" />
          <path
             d="M 96.016552,260.79254 H 84.275749 v 4.71137 h 10.777455 v 3.8534 H 84.275749 v 5.70482 h 12.282687 v 3.98886 H 79.745003 v -22.1871 h 16.271549 z"
             style="font-style:normal;font-weight:normal;font-size:medium;line-height:1.25;font-family:sans-serif;letter-spacing:0px;word-spacing:0px;fill:#45cb85;fill-opacity:1;stroke:none;stroke-width:0.77067965"
             id="path4651"
             inkscape:connector-curvature="0" />
          <path
             d="m 103.55776,272.20219 q 0.21073,1.52029 0.82788,2.2729 1.12892,1.36976 3.86844,1.36976 1.64071,0 2.66426,-0.36125 1.94175,-0.69241 1.94175,-2.57395 0,-1.09882 -0.96335,-1.70091 -0.96335,-0.58704 -3.02551,-1.03861 l -2.34816,-0.52683 q -3.46203,-0.78272 -4.78664,-1.70091 -2.242792,-1.53534 -2.242792,-4.80169 0,-2.98036 2.167532,-4.95221 2.16753,-1.97185 6.36713,-1.97185 3.50719,0 5.97577,1.86648 2.48363,1.85144 2.60405,5.38873 h -4.45549 q -0.12042,-2.00196 -1.74607,-2.84489 -1.08376,-0.55693 -2.69436,-0.55693 -1.79122,0 -2.85994,0.72251 -1.06871,0.72251 -1.06871,2.01701 0,1.18913 1.05366,1.77617 0.67735,0.39136 2.89004,0.91819 l 3.82329,0.9182 q 2.51374,0.60209 3.79318,1.61059 1.98691,1.56544 1.98691,4.53075 0,3.04057 -2.33311,5.05758 -2.31806,2.00195 -6.56281,2.00195 -4.33506,0 -6.8187,-1.97185 -2.483628,-1.98691 -2.483628,-5.44894 z m 4.50064,-16.01566 z"
             style="font-style:normal;font-weight:normal;font-size:medium;line-height:1.25;font-family:sans-serif;letter-spacing:0px;word-spacing:0px;fill:#45cb85;fill-opacity:1;stroke:none;stroke-width:0.77067965"
             id="path4653"
             inkscape:connector-curvature="0" />
        </g>
      </g>
    </clipPath>
  </defs>
  <sodipodi:namedview
     id="base"
     pagecolor="#ffffff"
     bordercolor="#666666"
     borderopacity="1.0"
     inkscape:pageopacity="0.0"
     inkscape:pageshadow="2"
     inkscape:zoom="0.80676031"
     inkscape:cx="563.76832"
     inkscape:cy="287.92475"
     inkscape:document-units="mm"
     inkscape:current-layer="layer1"
     showgrid="false"
     inkscape:pagecheckerboard="true"
     showguides="false"
     inkscape:guide-bbox="true"
     inkscape:window-width="1440"
     inkscape:window-height="855"
     inkscape:window-x="-1"
     inkscape:window-y="0"
     inkscape:window-maximized="0" />
  <metadata
     id="metadata5">
    <rdf:RDF>
      <cc:Work
         rdf:about="">
        <dc:format>image/svg+xml</dc:format>
        <dc:type
           rdf:resource="http://purl.org/dc/dcmitype/StillImage" />
        <dc:title></dc:title>
      </cc:Work>
    </rdf:RDF>
  </metadata>
  <g
     inkscape:label="Layer 1"
     inkscape:groupmode="layer"
     id="layer1"
     transform="translate(0,-157)">
    <path
       style="fill:#00171f;fill-opacity:0.66028708;stroke-width:0.8378377"
       d="M 124.98438 13.529297 L 124.98438 97.529297 L 124.98438 243.5293 L 124.98438 271.5293 L 124.98438 299.82227 L 125.15625 299.82227 L 125.15625 422.36719 L 125.15625 494.42773 L 471.01953 494.42773 L 471.01953 422.36719 L 470.98438 422.36719 L 470.98438 299.82227 L 470.98438 245.5293 L 470.98438 243.5293 L 470.98438 93.529297 L 438.98438 93.529297 L 438.98438 29.529297 L 427.37891 29.529297 L 427.37891 93.529297 L 396.98438 93.529297 L 396.98438 243.5293 L 378.98438 243.5293 L 378.98438 135.5293 L 316.98438 135.5293 L 316.98438 243.5293 L 290.98438 243.5293 L 290.98438 185.5293 L 216.98438 185.5293 L 216.98438 243.5293 L 194.98438 243.5293 L 194.98438 97.529297 L 195.29492 97.529297 L 194.98438 97.158203 L 194.98438 96.910156 L 194.77734 96.910156 L 124.98438 13.529297 z M 397.82812 323.92969 C 405.23872 323.92969 411.55153 325.90188 416.76758 329.8457 C 422.01541 333.75774 424.76705 339.44966 425.02148 346.92383 L 410.89844 346.92383 C 410.64408 342.69378 408.80214 339.68927 405.36719 337.9082 C 403.07725 336.73141 400.22933 336.14453 396.82617 336.14453 C 393.04139 336.14453 390.01984 336.90697 387.76172 338.43359 C 385.50353 339.96026 384.375 342.09097 384.375 344.82617 C 384.375 347.3388 385.48851 349.21467 387.71484 350.45508 C 389.14608 351.28204 392.1977 352.25201 396.87305 353.36523 L 408.99023 356.27734 C 414.30168 357.54953 418.31025 359.24989 421.01367 361.38086 C 425.21193 364.68855 427.31055 369.47465 427.31055 375.74023 C 427.31055 382.16486 424.84772 387.50766 419.91797 391.76953 C 415.01997 395.99962 408.08428 398.11523 399.11523 398.11523 C 389.9554 398.11523 382.75371 396.03167 377.50586 391.86523 C 372.25802 387.66697 369.63281 381.91079 369.63281 374.5957 L 383.66016 374.5957 C 384.10546 377.80796 384.97923 380.20855 386.2832 381.79883 C 388.66861 384.69308 392.75642 386.14062 398.54492 386.14062 C 402.01166 386.14062 404.82552 385.75941 406.98828 384.99609 C 411.09111 383.53308 413.14258 380.8135 413.14258 376.83789 C 413.14258 374.51613 412.12538 372.71949 410.08984 371.44727 C 408.05434 370.20686 404.8573 369.10844 400.5 368.1543 L 393.05664 366.48633 C 385.74148 364.83252 380.68555 363.03389 377.88672 361.09375 C 373.14776 357.84967 370.77734 352.77672 370.77734 345.875 C 370.77734 339.57759 373.06655 334.34613 377.64648 330.17969 C 382.2264 326.01321 388.95451 323.92969 397.82812 323.92969 z M 200.55664 324.64648 C 212.38812 324.64648 221.04125 328.52668 226.51172 336.28711 C 229.5332 340.64441 231.15237 345.01521 231.375 349.4043 L 216.68359 349.4043 C 215.72946 346.03296 214.5046 343.49089 213.00977 341.77344 C 210.33813 338.72015 206.37869 337.19336 201.13086 337.19336 C 195.78762 337.19336 191.57337 339.35616 188.48828 343.68164 C 185.40319 347.97534 183.85938 354.06544 183.85938 361.95312 C 183.85938 369.84073 185.48245 375.75536 188.72656 379.69922 C 192.00248 383.61122 196.15254 385.56836 201.17773 385.56836 C 206.33015 385.56836 210.2575 383.88302 212.96094 380.51172 C 214.45577 378.69879 215.69765 375.97738 216.68359 372.35156 L 231.23438 372.35156 C 229.96216 380.0166 226.70096 386.25216 221.45312 391.05469 C 216.2371 395.8573 209.54108 398.25781 201.36719 398.25781 C 191.25318 398.25781 183.3022 395.01558 177.51367 388.52734 C 171.72516 382.00728 168.83008 373.06926 168.83008 361.71484 C 168.83008 349.43811 172.12339 339.97732 178.70703 333.33008 C 184.43194 327.54154 191.71484 324.64648 200.55664 324.64648 z M 242.91992 325.98242 L 294.49414 325.98242 L 294.49414 338.43359 L 257.28125 338.43359 L 257.28125 353.36523 L 291.43945 353.36523 L 291.43945 365.58008 L 257.28125 365.58008 L 257.28125 383.66016 L 296.21094 383.66016 L 296.21094 396.30273 L 242.91992 396.30273 L 242.91992 325.98242 z M 308.18555 325.98242 L 359.75586 325.98242 L 359.75586 338.43359 L 322.54492 338.43359 L 322.54492 353.36523 L 356.70508 353.36523 L 356.70508 365.58008 L 322.54492 365.58008 L 322.54492 383.66016 L 361.47461 383.66016 L 361.47461 396.30273 L 308.18555 396.30273 L 308.18555 325.98242 z "
       transform="matrix(0.26458333,0,0,0.26458333,0,157)"
       id="rect4645" />
    <text
       xml:space="preserve"
       style="font-style:normal;font-weight:normal;font-size:17.57236481px;line-height:1.25;font-family:sans-serif;letter-spacing:0px;word-spacing:0px;fill:#000000;fill-opacity:1;stroke:none;stroke-width:0.43930915"
       x="129.50487"
       y="202.99623"
       id="text3705"
       transform="scale(1.0121304,0.98801498)"><tspan
         sodipodi:role="line"
         x="129.50487"
         y="202.99623"
         style="font-size:23.42982101px;text-align:start;text-anchor:start;stroke-width:0.43930915"
         id="tspan3707">Competitive</tspan><tspan
         sodipodi:role="line"
         x="129.50487"
         y="232.28351"
         style="font-size:23.42982101px;text-align:start;text-anchor:start;stroke-width:0.43930915"
         id="tspan3757">Edge</tspan><tspan
         sodipodi:role="line"
         x="129.50487"
         y="261.57077"
         style="font-size:23.42982101px;text-align:start;text-anchor:start;stroke-width:0.43930915"
         id="tspan3721">Energy</tspan><tspan
         sodipodi:role="line"
         x="129.50487"
         y="290.85806"
         style="font-size:23.42982101px;text-align:start;text-anchor:start;stroke-width:0.43930915"
         id="tspan3759">Solutions</tspan></text>
    <rect
       id="rect3709"
       width="211.66666"
       height="210.15475"
       x="-0.75595242"
       y="87.601196"
       style="fill:none;stroke-width:0.26458332" />
    <g
       transform="translate(-133.9321,79.953583)"
       id="g4617">
      <path
         id="path4615"
         transform="matrix(0.26458333,0,0,0.26458333,-22.30113,148.22754)"
         d="m 117.54688,31.207031 v 83.999999 146 28 152 h 346 v -178 -2 -150 h -32 V 47.207031 h -11.60547 v 63.999999 h -30.39453 v 150 h -18 v -108 h -62 v 108 h -26 v -58 h -74 v 58 h -22 v -146 h 0.31054 l -0.31054,-0.37109 v -0.24805 h -0.20704 z"
         style="fill:#00171f;fill-opacity:0.41545895;stroke-width:0.99999994"
         inkscape:connector-curvature="0" />
    </g>
  </g>
</svg>
