<?xml version="1.0" encoding="UTF-8" standalone="no"?>
<!-- Created with Inkscape (http://www.inkscape.org/) -->

<svg
   xmlns:dc="http://purl.org/dc/elements/1.1/"
   xmlns:cc="http://creativecommons.org/ns#"
   xmlns:rdf="http://www.w3.org/1999/02/22-rdf-syntax-ns#"
   xmlns:svg="http://www.w3.org/2000/svg"
   xmlns="http://www.w3.org/2000/svg"
   xmlns:sodipodi="http://sodipodi.sourceforge.net/DTD/sodipodi-0.dtd"
   xmlns:inkscape="http://www.inkscape.org/namespaces/inkscape"
   width="210mm"
   height="210mm"
   viewBox="0 0 210 210"
   version="1.1"
   id="svg4715"
   inkscape:version="0.92.2 5c3e80d, 2017-08-06"
   sodipodi:docname="logo_square.svg">
  <defs
     id="defs4709" />
  <sodipodi:namedview
     id="base"
     pagecolor="#ffffff"
     bordercolor="#666666"
     borderopacity="1.0"
     inkscape:pageopacity="0.0"
     inkscape:pageshadow="2"
     inkscape:zoom="0.49497475"
     inkscape:cx="627.42681"
     inkscape:cy="354.67669"
     inkscape:document-units="mm"
     inkscape:current-layer="layer1"
     showgrid="false"
     showguides="true"
     inkscape:guide-bbox="true"
     inkscape:window-width="1440"
     inkscape:window-height="855"
     inkscape:window-x="0"
     inkscape:window-y="1"
     inkscape:window-maximized="1"
     inkscape:pagecheckerboard="true"
     showborder="false">
    <sodipodi:guide
       position="11.759859,35.819493"
       orientation="1,0"
       id="guide5348"
       inkscape:locked="false" />
    <sodipodi:guide
       position="190.83044,96.217028"
       orientation="1,0"
       id="guide5350"
       inkscape:locked="false" />
  </sodipodi:namedview>
  <metadata
     id="metadata4712">
    <rdf:RDF>
      <cc:Work
         rdf:about="">
        <dc:format>image/svg+xml</dc:format>
        <dc:type
           rdf:resource="http://purl.org/dc/dcmitype/StillImage" />
        <dc:title></dc:title>
      </cc:Work>
    </rdf:RDF>
  </metadata>
  <g
     inkscape:label="Layer 1"
     inkscape:groupmode="layer"
     id="layer1"
     transform="translate(0,-87)">
    <path
       style="fill:#45cb85;fill-opacity:1;stroke-width:0.99999994"
       d="M -4.0410156 -2.2988281 L -4.0410156 797.74219 L 798.01953 797.74219 L 798.01953 -2.2988281 L -4.0410156 -2.2988281 z M 130.64062 213.82422 C 144.62096 213.82422 156.49377 215.59983 166.25781 219.15039 C 176.02186 222.70095 183.89906 227.80559 189.89062 234.46289 C 196.10411 240.89828 200.54216 248.77548 203.20508 258.0957 C 206.08991 267.19402 207.5332 277.51341 207.5332 289.05273 L 207.5332 304.03125 L 147.61719 304.03125 L 147.61719 290.7168 C 147.61719 277.18028 146.28597 267.97187 143.62305 263.08984 C 140.96013 258.20782 136.6322 255.76562 130.64062 255.76562 C 125.98052 255.76563 122.2071 256.98672 119.32227 259.42773 C 116.65934 261.86875 114.55142 266.19667 112.99805 272.41016 C 111.66659 278.62364 110.77976 287.05535 110.33594 297.70703 C 109.89212 308.13681 109.66992 321.34083 109.66992 337.31836 C 109.66992 353.29589 109.89212 366.61003 110.33594 377.26172 C 110.77976 387.69149 111.66659 396.01308 112.99805 402.22656 C 114.55142 408.44005 116.65934 412.76797 119.32227 415.20898 C 122.2071 417.65 125.98052 418.86914 130.64062 418.86914 C 134.4131 418.86914 137.51993 417.98231 139.96094 416.20703 C 142.40195 414.20984 144.28768 410.99289 145.61914 406.55469 C 146.9506 402.11649 147.83938 396.23514 148.2832 388.91211 C 148.94893 381.36717 149.28125 371.93656 149.28125 360.61914 L 209.19727 360.61914 L 209.19727 378.25977 C 209.19727 394.90302 206.97726 408.55145 202.53906 419.20312 C 198.10086 429.85481 192.22147 438.28652 184.89844 444.5 C 177.5754 450.49157 169.14174 454.48718 159.59961 456.48438 C 150.27938 458.70347 140.62658 459.8125 130.64062 459.8125 C 113.33165 459.8125 99.128709 457.70457 88.033203 453.48828 C 76.937697 449.27199 68.283796 442.28162 62.070312 432.51758 C 55.85683 422.53162 51.528902 409.77199 49.087891 394.23828 C 46.868789 378.48266 45.759766 359.50937 45.759766 337.31836 C 45.759766 314.68353 47.090985 295.48804 49.753906 279.73242 C 52.638738 263.9768 57.411056 251.21717 64.068359 241.45312 C 70.725663 231.68909 79.489685 224.69871 90.363281 220.48242 C 101.23688 216.04422 114.66311 213.82422 130.64062 213.82422 z M 637.96289 213.82422 C 665.03593 213.82422 684.56373 219.70556 696.54688 231.4668 C 708.75192 243.00612 714.85547 261.53502 714.85547 287.05469 L 656.9375 287.05469 L 656.9375 281.39648 C 656.9375 274.29536 655.4942 268.30389 652.60938 263.42188 C 649.72454 258.31794 645.2865 255.76562 639.29492 255.76562 C 632.63762 255.76562 627.75518 257.98563 624.64844 262.42383 C 621.5417 266.64012 619.98828 271.41049 619.98828 276.73633 C 619.98828 284.50318 622.43048 290.71684 627.3125 295.37695 C 632.41643 299.81516 638.74021 303.69869 646.28516 307.02734 C 653.8301 310.356 661.92949 313.79514 670.58398 317.3457 C 679.23848 320.67435 687.33787 325.1124 694.88281 330.66016 C 702.42776 336.20791 708.64141 343.53254 713.52344 352.63086 C 718.62737 361.50726 721.17969 373.15592 721.17969 387.58008 C 721.17969 412.87783 713.96713 431.29661 699.54297 442.83594 C 685.11881 454.15335 664.25979 459.8125 636.96484 459.8125 C 624.09406 459.8125 612.66564 458.70347 602.67969 456.48438 C 592.91564 454.48718 584.59406 450.93596 577.71484 445.83203 C 571.05754 440.50619 565.95291 433.6279 562.40234 425.19531 C 558.85178 416.76273 557.07813 406.33126 557.07812 393.9043 L 557.07812 385.58398 L 616.99219 385.58398 L 616.99219 391.24219 C 616.99219 401.45005 618.87987 408.66261 622.65234 412.87891 C 626.42482 416.87329 631.3053 418.86914 637.29688 418.86914 C 643.73226 418.86914 648.61471 416.65109 651.94336 412.21289 C 655.49392 407.77469 657.26953 402.33774 657.26953 395.90234 C 657.26953 388.13549 654.82929 382.03391 649.94727 377.5957 C 645.28715 372.93559 639.29569 369.05205 631.97266 365.94531 C 624.87153 362.61666 617.10445 359.28764 608.67188 355.95898 C 600.23929 352.63033 592.36014 348.30241 585.03711 342.97656 C 577.93599 337.65072 571.94452 330.66035 567.0625 322.00586 C 562.40239 313.35136 560.07227 302.03503 560.07227 288.05469 C 560.07227 263.86648 566.50812 245.44771 579.37891 232.79883 C 592.24969 220.14995 611.7775 213.82422 637.96289 213.82422 z M 231.53516 218.48438 L 372.33789 218.48438 L 372.33789 269.08008 L 293.44727 269.08008 L 293.44727 309.68945 L 367.34375 309.68945 L 367.34375 358.28906 L 293.44727 358.28906 L 293.44727 405.55469 L 375.33203 405.55469 L 375.33203 456.15039 L 231.53516 456.15039 L 231.53516 218.48438 z M 397.9668 218.48438 L 538.76953 218.48438 L 538.76953 269.08008 L 459.88086 269.08008 L 459.88086 309.68945 L 533.77734 309.68945 L 533.77734 358.28906 L 459.88086 358.28906 L 459.88086 405.55469 L 541.76562 405.55469 L 541.76562 456.15039 L 397.9668 456.15039 L 397.9668 218.48438 z M 44.447266 621.95508 L 721.24805 621.95508 L 721.24805 658.32031 L 44.447266 658.32031 L 44.447266 621.95508 z "
       transform="matrix(0.26458333,0,0,0.26458333,0,87)"
       id="rect5292" />
    <text
       xml:space="preserve"
       style="font-style:normal;font-weight:normal;font-size:30.63025475px;line-height:1.25;font-family:sans-serif;letter-spacing:0px;word-spacing:0px;fill:#00171f;fill-opacity:0.90196079;stroke:none;stroke-width:0.76575637;"
       x="12.291116"
       y="242.85555"
       id="text4726"><tspan
         sodipodi:role="line"
         id="tspan4724"
         x="12.291116"
         y="242.85555"
         style="font-style:normal;font-variant:normal;font-weight:normal;font-stretch:normal;font-family:'Helvetica Neue';-inkscape-font-specification:'Helvetica Neue';letter-spacing:3.82878184px;stroke-width:0.76575637;fill:#00171f;fill-opacity:0.90196079;">ADVISORS</tspan></text>
  </g>
</svg>
